Coordinates
version=1
nRows=21
nColumns=12
inDegrees=yes

Units are S.I. units (second, meters, Newtons, ...)
Angles are in degrees

endheader
time	SC_y	SC_z	SC_x	AC_y	AC_z	AC_x	GH_y	GH_z	GH_yy	EL_x	PS_y
       0.0              -31.97          11.32          21.86          45.27          -6.05         -11.39          38.56          32.74         -117.3          62.47          86.47
   0.01444              -31.97          11.32          21.86          45.27         -6.051         -11.39          38.53          32.74         -117.3          62.47          86.47
   0.02888              -31.97          11.32          21.86          45.27         -6.053         -11.39           38.5          32.74         -117.3          62.47          86.47
   0.04332              -31.98          11.32          21.86          45.27         -6.054         -11.38          38.46          32.74         -117.3          62.47          86.47
   0.05776              -31.98          11.32          21.86          45.27         -6.056         -11.38          38.43          32.73         -117.3          62.47          86.47
    0.0722              -31.98          11.32          21.86          45.27         -6.057         -11.37          38.39          32.73         -117.3          62.48          86.47
   0.08664              -31.99          11.32          21.87          45.28         -6.059         -11.37          38.35          32.73         -117.3          62.48          86.47
    0.1011              -31.99          11.32          21.87          45.28         -6.061         -11.36           38.3          32.73         -117.3          62.48          86.47
    0.1155               -32.0          11.32          21.87          45.28         -6.063         -11.36          38.25          32.72         -117.3          62.48          86.47
      0.13               -32.0          11.32          21.87          45.28         -6.065         -11.35           38.2          32.72         -117.3          62.49          86.47
    0.1444              -32.01          11.32          21.87          45.28         -6.067         -11.34          38.15          32.72         -117.2          62.49          86.47
    0.1588              -32.01          11.32          21.87          45.29          -6.07         -11.34          38.09          32.72         -117.2          62.49          86.46
    0.1733              -32.02          11.31          21.87          45.29         -6.072         -11.33          38.02          32.71         -117.2           62.5          86.46
    0.1877              -32.03          11.31          21.88          45.29         -6.075         -11.32          37.95          32.71         -117.2           62.5          86.46
    0.2022              -32.03          11.31          21.88          45.29         -6.078         -11.31          37.88          32.71         -117.2          62.51          86.46
    0.2166              -32.04          11.31          21.88           45.3         -6.081          -11.3           37.8           32.7         -117.2          62.51          86.46
     0.231              -32.05          11.31          21.88           45.3         -6.085         -11.29          37.71           32.7         -117.2          62.52          86.46
    0.2455              -32.06          11.31          21.88          45.31         -6.089         -11.28          37.61          32.69         -117.2          62.52          86.46
    0.2599              -32.07          11.31          21.89          45.31         -6.093         -11.27          37.51          32.69         -117.2          62.53          86.46
    0.2744              -32.08           11.3          21.89          45.31         -6.098         -11.26          37.39          32.68         -117.2          62.54          86.45
    0.2888              -32.09           11.3          21.89          45.32         -6.103         -11.24          37.27          32.68         -117.2          62.55          86.45
